<svg xmlns="http://www.w3.org/2000/svg" viewBox="0 0 1920 1080"><defs><style>.cls-1{fill:#161616;}.cls-2{fill:#fff;}</style></defs><title>2_1</title><g id="Calque_2" data-name="Calque 2"><g id="common"><rect class="cls-1" x="0.5" y="0.5" width="1919" height="1079"/><path d="M1919,1V1079H1V1H1919m1-1H0V1080H1920V0Z"/></g><g id="scene_1" data-name="scene 1"><g id="letters"><path class="cls-2" d="M1408.53,86.85a9.87,9.87,0,0,1,10-9.85,9.29,9.29,0,0,1,4.47,1.13v4a6.27,6.27,0,0,0-4.52-1.85,6.57,6.57,0,1,0,0,13.15,6.07,6.07,0,0,0,4.55-1.87v4a9.29,9.29,0,0,1-4.47,1.13A9.89,9.89,0,0,1,1408.53,86.85Z"/><path class="cls-2" d="M1417.33,987h-9v-3.25H1423l-9.42,16H1423V1003h-15.1Z"/><path class="cls-2" d="M501.95,80.25H497V77h13.12v3.25H505.2v16h-3.25Z"/><path class="cls-2" d="M501.95,987H497v-3.25h13.12V987H505.2v16h-3.25Z"/></g></g></g></svg>