<svg xmlns="http://www.w3.org/2000/svg" viewBox="0 0 438.53 365.45"><defs><style>.cls-1{fill:#757575;}</style></defs><title>icon_list_grey</title><g id="Calque_2" data-name="Calque 2"><g id="Capa_1" data-name="Capa 1"><path class="cls-1" d="M420.27,292.36h-402a17.57,17.57,0,0,0-12.85,5.43A17.55,17.55,0,0,0,0,310.63v36.55A17.56,17.56,0,0,0,5.42,360a17.58,17.58,0,0,0,12.85,5.42h402a18.52,18.52,0,0,0,18.27-18.27V310.63a18.53,18.53,0,0,0-18.27-18.27Z"/><path class="cls-1" d="M433.11,5.43A17.56,17.56,0,0,0,420.27,0h-402A17.56,17.56,0,0,0,5.42,5.43,17.55,17.55,0,0,0,0,18.27V54.82A17.56,17.56,0,0,0,5.42,67.67a17.56,17.56,0,0,0,12.85,5.42h402a17.56,17.56,0,0,0,12.85-5.42,17.56,17.56,0,0,0,5.42-12.85V18.27A17.55,17.55,0,0,0,433.11,5.43Z"/><path class="cls-1" d="M420.27,146.18h-402A17.56,17.56,0,0,0,5.42,151.6,17.56,17.56,0,0,0,0,164.45V201a17.55,17.55,0,0,0,5.42,12.85,17.58,17.58,0,0,0,12.85,5.43h402A18.53,18.53,0,0,0,438.53,201V164.45a18.52,18.52,0,0,0-18.27-18.27Z"/></g></g></svg>